<mxfile host="Electron" agent="Mozilla/5.0 (X11; Linux x86_64) AppleWebKit/537.36 (KHTML, like Gecko) draw.io/24.7.17 Chrome/128.0.6613.36 Electron/32.0.1 Safari/537.36" version="24.7.17" pages="3">
  <diagram name="Page-1" id="xNhHiARx_qG9kAPAFZdC">
    <mxGraphModel dx="1018" dy="592" grid="1" gridSize="10" guides="1" tooltips="1" connect="1" arrows="1" fold="1" page="1" pageScale="1" pageWidth="827" pageHeight="1169" math="0" shadow="0">
      <root>
        <mxCell id="0" />
        <mxCell id="1" parent="0" />
        <mxCell id="6kBmeFImECE2ff5aBwqo-7" style="edgeStyle=orthogonalEdgeStyle;rounded=0;orthogonalLoop=1;jettySize=auto;html=1;entryX=0;entryY=0.5;entryDx=0;entryDy=0;" edge="1" parent="1" source="6kBmeFImECE2ff5aBwqo-1" target="6kBmeFImECE2ff5aBwqo-4">
          <mxGeometry relative="1" as="geometry" />
        </mxCell>
        <mxCell id="6kBmeFImECE2ff5aBwqo-1" value="&quot;wolverine&quot;" style="text;html=1;align=center;verticalAlign=middle;whiteSpace=wrap;rounded=0;fontStyle=1;fontSize=20;" vertex="1" parent="1">
          <mxGeometry x="40" y="160" width="120" height="40" as="geometry" />
        </mxCell>
        <mxCell id="6kBmeFImECE2ff5aBwqo-2" value="" style="rounded=0;whiteSpace=wrap;html=1;fillColor=#3681DF;" vertex="1" parent="1">
          <mxGeometry x="200" y="80" width="40" height="40" as="geometry" />
        </mxCell>
        <mxCell id="6kBmeFImECE2ff5aBwqo-3" value="" style="rounded=0;whiteSpace=wrap;html=1;fillStyle=auto;" vertex="1" parent="1">
          <mxGeometry x="200" y="120" width="40" height="40" as="geometry" />
        </mxCell>
        <mxCell id="6kBmeFImECE2ff5aBwqo-4" value="" style="rounded=0;whiteSpace=wrap;html=1;fillColor=#3681DF;" vertex="1" parent="1">
          <mxGeometry x="200" y="160" width="40" height="40" as="geometry" />
        </mxCell>
        <mxCell id="6kBmeFImECE2ff5aBwqo-5" value="" style="rounded=0;whiteSpace=wrap;html=1;" vertex="1" parent="1">
          <mxGeometry x="200" y="200" width="40" height="40" as="geometry" />
        </mxCell>
        <mxCell id="6kBmeFImECE2ff5aBwqo-6" value="" style="rounded=0;whiteSpace=wrap;html=1;fillColor=#3681DF;" vertex="1" parent="1">
          <mxGeometry x="200" y="240" width="40" height="40" as="geometry" />
        </mxCell>
        <mxCell id="6kBmeFImECE2ff5aBwqo-8" value="" style="rounded=0;whiteSpace=wrap;html=1;" vertex="1" parent="1">
          <mxGeometry x="240" y="80" width="40" height="40" as="geometry" />
        </mxCell>
        <mxCell id="6kBmeFImECE2ff5aBwqo-9" value="" style="rounded=0;whiteSpace=wrap;html=1;fillStyle=auto;fillColor=#3681DF;" vertex="1" parent="1">
          <mxGeometry x="240" y="120" width="40" height="40" as="geometry" />
        </mxCell>
        <mxCell id="6kBmeFImECE2ff5aBwqo-10" value="" style="rounded=0;whiteSpace=wrap;html=1;fillColor=#3681DF;" vertex="1" parent="1">
          <mxGeometry x="240" y="160" width="40" height="40" as="geometry" />
        </mxCell>
        <mxCell id="6kBmeFImECE2ff5aBwqo-11" value="" style="rounded=0;whiteSpace=wrap;html=1;" vertex="1" parent="1">
          <mxGeometry x="240" y="200" width="40" height="40" as="geometry" />
        </mxCell>
        <mxCell id="6kBmeFImECE2ff5aBwqo-12" value="" style="rounded=0;whiteSpace=wrap;html=1;" vertex="1" parent="1">
          <mxGeometry x="240" y="240" width="40" height="40" as="geometry" />
        </mxCell>
        <mxCell id="6kBmeFImECE2ff5aBwqo-13" value="" style="rounded=0;whiteSpace=wrap;html=1;" vertex="1" parent="1">
          <mxGeometry x="280" y="80" width="40" height="40" as="geometry" />
        </mxCell>
        <mxCell id="6kBmeFImECE2ff5aBwqo-14" value="" style="rounded=0;whiteSpace=wrap;html=1;fillStyle=auto;" vertex="1" parent="1">
          <mxGeometry x="280" y="120" width="40" height="40" as="geometry" />
        </mxCell>
        <mxCell id="6kBmeFImECE2ff5aBwqo-15" value="" style="rounded=0;whiteSpace=wrap;html=1;" vertex="1" parent="1">
          <mxGeometry x="280" y="160" width="40" height="40" as="geometry" />
        </mxCell>
        <mxCell id="6kBmeFImECE2ff5aBwqo-16" value="" style="rounded=0;whiteSpace=wrap;html=1;" vertex="1" parent="1">
          <mxGeometry x="280" y="200" width="40" height="40" as="geometry" />
        </mxCell>
        <mxCell id="6kBmeFImECE2ff5aBwqo-17" value="" style="rounded=0;whiteSpace=wrap;html=1;fillStyle=auto;fillColor=#3681DF;" vertex="1" parent="1">
          <mxGeometry x="280" y="240" width="40" height="40" as="geometry" />
        </mxCell>
        <mxCell id="6kBmeFImECE2ff5aBwqo-18" value="" style="rounded=0;whiteSpace=wrap;html=1;" vertex="1" parent="1">
          <mxGeometry x="320" y="80" width="40" height="40" as="geometry" />
        </mxCell>
        <mxCell id="6kBmeFImECE2ff5aBwqo-19" value="" style="rounded=0;whiteSpace=wrap;html=1;fillStyle=auto;fillColor=#3681DF;" vertex="1" parent="1">
          <mxGeometry x="320" y="120" width="40" height="40" as="geometry" />
        </mxCell>
        <mxCell id="6kBmeFImECE2ff5aBwqo-20" value="" style="rounded=0;whiteSpace=wrap;html=1;fillColor=#3681DF;" vertex="1" parent="1">
          <mxGeometry x="320" y="160" width="40" height="40" as="geometry" />
        </mxCell>
        <mxCell id="6kBmeFImECE2ff5aBwqo-21" value="" style="rounded=0;whiteSpace=wrap;html=1;fillStyle=auto;" vertex="1" parent="1">
          <mxGeometry x="320" y="200" width="40" height="40" as="geometry" />
        </mxCell>
        <mxCell id="6kBmeFImECE2ff5aBwqo-22" value="" style="rounded=0;whiteSpace=wrap;html=1;" vertex="1" parent="1">
          <mxGeometry x="320" y="240" width="40" height="40" as="geometry" />
        </mxCell>
        <mxCell id="6kBmeFImECE2ff5aBwqo-23" value="" style="rounded=0;whiteSpace=wrap;html=1;fillColor=#3681DF;" vertex="1" parent="1">
          <mxGeometry x="360" y="80" width="40" height="40" as="geometry" />
        </mxCell>
        <mxCell id="6kBmeFImECE2ff5aBwqo-24" value="" style="rounded=0;whiteSpace=wrap;html=1;fillStyle=auto;" vertex="1" parent="1">
          <mxGeometry x="360" y="120" width="40" height="40" as="geometry" />
        </mxCell>
        <mxCell id="6kBmeFImECE2ff5aBwqo-25" value="" style="rounded=0;whiteSpace=wrap;html=1;fillColor=#3681DF;" vertex="1" parent="1">
          <mxGeometry x="360" y="160" width="40" height="40" as="geometry" />
        </mxCell>
        <mxCell id="6kBmeFImECE2ff5aBwqo-26" value="" style="rounded=0;whiteSpace=wrap;html=1;" vertex="1" parent="1">
          <mxGeometry x="360" y="200" width="40" height="40" as="geometry" />
        </mxCell>
        <mxCell id="6kBmeFImECE2ff5aBwqo-27" value="" style="rounded=0;whiteSpace=wrap;html=1;fillColor=#3681DF;" vertex="1" parent="1">
          <mxGeometry x="360" y="240" width="40" height="40" as="geometry" />
        </mxCell>
        <mxCell id="6kBmeFImECE2ff5aBwqo-28" style="edgeStyle=orthogonalEdgeStyle;rounded=0;orthogonalLoop=1;jettySize=auto;html=1;entryX=0;entryY=0.5;entryDx=0;entryDy=0;" edge="1" parent="1" source="6kBmeFImECE2ff5aBwqo-29" target="6kBmeFImECE2ff5aBwqo-32">
          <mxGeometry relative="1" as="geometry" />
        </mxCell>
        <mxCell id="6kBmeFImECE2ff5aBwqo-29" value="&quot;superman&quot;" style="text;html=1;align=center;verticalAlign=middle;whiteSpace=wrap;rounded=0;fontStyle=1;fontSize=20;" vertex="1" parent="1">
          <mxGeometry x="414" y="160" width="120" height="40" as="geometry" />
        </mxCell>
        <mxCell id="6kBmeFImECE2ff5aBwqo-30" value="" style="rounded=0;whiteSpace=wrap;html=1;fillColor=#84D961;" vertex="1" parent="1">
          <mxGeometry x="574" y="80" width="40" height="40" as="geometry" />
        </mxCell>
        <mxCell id="6kBmeFImECE2ff5aBwqo-31" value="" style="rounded=0;whiteSpace=wrap;html=1;fillStyle=auto;fillColor=#84D961;" vertex="1" parent="1">
          <mxGeometry x="574" y="120" width="40" height="40" as="geometry" />
        </mxCell>
        <mxCell id="6kBmeFImECE2ff5aBwqo-32" value="" style="rounded=0;whiteSpace=wrap;html=1;" vertex="1" parent="1">
          <mxGeometry x="574" y="160" width="40" height="40" as="geometry" />
        </mxCell>
        <mxCell id="6kBmeFImECE2ff5aBwqo-33" value="" style="rounded=0;whiteSpace=wrap;html=1;" vertex="1" parent="1">
          <mxGeometry x="574" y="200" width="40" height="40" as="geometry" />
        </mxCell>
        <mxCell id="6kBmeFImECE2ff5aBwqo-34" value="" style="rounded=0;whiteSpace=wrap;html=1;fillColor=#84D961;" vertex="1" parent="1">
          <mxGeometry x="574" y="240" width="40" height="40" as="geometry" />
        </mxCell>
        <mxCell id="6kBmeFImECE2ff5aBwqo-35" value="" style="rounded=0;whiteSpace=wrap;html=1;" vertex="1" parent="1">
          <mxGeometry x="614" y="80" width="40" height="40" as="geometry" />
        </mxCell>
        <mxCell id="6kBmeFImECE2ff5aBwqo-36" value="" style="rounded=0;whiteSpace=wrap;html=1;fillStyle=auto;fillColor=#84D961;" vertex="1" parent="1">
          <mxGeometry x="614" y="120" width="40" height="40" as="geometry" />
        </mxCell>
        <mxCell id="6kBmeFImECE2ff5aBwqo-37" value="" style="rounded=0;whiteSpace=wrap;html=1;fillColor=#84D961;" vertex="1" parent="1">
          <mxGeometry x="614" y="160" width="40" height="40" as="geometry" />
        </mxCell>
        <mxCell id="6kBmeFImECE2ff5aBwqo-38" value="" style="rounded=0;whiteSpace=wrap;html=1;fillColor=#84D961;" vertex="1" parent="1">
          <mxGeometry x="614" y="200" width="40" height="40" as="geometry" />
        </mxCell>
        <mxCell id="6kBmeFImECE2ff5aBwqo-39" value="" style="rounded=0;whiteSpace=wrap;html=1;fillColor=#84D961;" vertex="1" parent="1">
          <mxGeometry x="614" y="240" width="40" height="40" as="geometry" />
        </mxCell>
        <mxCell id="6kBmeFImECE2ff5aBwqo-40" value="" style="rounded=0;whiteSpace=wrap;html=1;" vertex="1" parent="1">
          <mxGeometry x="654" y="80" width="40" height="40" as="geometry" />
        </mxCell>
        <mxCell id="6kBmeFImECE2ff5aBwqo-41" value="" style="rounded=0;whiteSpace=wrap;html=1;fillStyle=auto;" vertex="1" parent="1">
          <mxGeometry x="654" y="120" width="40" height="40" as="geometry" />
        </mxCell>
        <mxCell id="6kBmeFImECE2ff5aBwqo-42" value="" style="rounded=0;whiteSpace=wrap;html=1;" vertex="1" parent="1">
          <mxGeometry x="654" y="160" width="40" height="40" as="geometry" />
        </mxCell>
        <mxCell id="6kBmeFImECE2ff5aBwqo-43" value="" style="rounded=0;whiteSpace=wrap;html=1;fillColor=#84D961;" vertex="1" parent="1">
          <mxGeometry x="654" y="200" width="40" height="40" as="geometry" />
        </mxCell>
        <mxCell id="6kBmeFImECE2ff5aBwqo-44" value="" style="rounded=0;whiteSpace=wrap;html=1;fillStyle=auto;" vertex="1" parent="1">
          <mxGeometry x="654" y="240" width="40" height="40" as="geometry" />
        </mxCell>
        <mxCell id="6kBmeFImECE2ff5aBwqo-45" value="" style="rounded=0;whiteSpace=wrap;html=1;" vertex="1" parent="1">
          <mxGeometry x="694" y="80" width="40" height="40" as="geometry" />
        </mxCell>
        <mxCell id="6kBmeFImECE2ff5aBwqo-46" value="" style="rounded=0;whiteSpace=wrap;html=1;fillStyle=auto;fillColor=#84D961;" vertex="1" parent="1">
          <mxGeometry x="694" y="120" width="40" height="40" as="geometry" />
        </mxCell>
        <mxCell id="6kBmeFImECE2ff5aBwqo-47" value="" style="rounded=0;whiteSpace=wrap;html=1;fillColor=#84D961;" vertex="1" parent="1">
          <mxGeometry x="694" y="160" width="40" height="40" as="geometry" />
        </mxCell>
        <mxCell id="6kBmeFImECE2ff5aBwqo-48" value="" style="rounded=0;whiteSpace=wrap;html=1;fillStyle=auto;fillColor=#84D961;" vertex="1" parent="1">
          <mxGeometry x="694" y="200" width="40" height="40" as="geometry" />
        </mxCell>
        <mxCell id="6kBmeFImECE2ff5aBwqo-49" value="" style="rounded=0;whiteSpace=wrap;html=1;fillColor=#84D961;" vertex="1" parent="1">
          <mxGeometry x="694" y="240" width="40" height="40" as="geometry" />
        </mxCell>
        <mxCell id="6kBmeFImECE2ff5aBwqo-50" value="" style="rounded=0;whiteSpace=wrap;html=1;fillColor=#84D961;" vertex="1" parent="1">
          <mxGeometry x="734" y="80" width="40" height="40" as="geometry" />
        </mxCell>
        <mxCell id="6kBmeFImECE2ff5aBwqo-51" value="" style="rounded=0;whiteSpace=wrap;html=1;fillStyle=auto;" vertex="1" parent="1">
          <mxGeometry x="734" y="120" width="40" height="40" as="geometry" />
        </mxCell>
        <mxCell id="6kBmeFImECE2ff5aBwqo-52" value="" style="rounded=0;whiteSpace=wrap;html=1;" vertex="1" parent="1">
          <mxGeometry x="734" y="160" width="40" height="40" as="geometry" />
        </mxCell>
        <mxCell id="6kBmeFImECE2ff5aBwqo-53" value="" style="rounded=0;whiteSpace=wrap;html=1;" vertex="1" parent="1">
          <mxGeometry x="734" y="200" width="40" height="40" as="geometry" />
        </mxCell>
        <mxCell id="6kBmeFImECE2ff5aBwqo-54" value="" style="rounded=0;whiteSpace=wrap;html=1;fillColor=#84D961;" vertex="1" parent="1">
          <mxGeometry x="734" y="240" width="40" height="40" as="geometry" />
        </mxCell>
        <mxCell id="XuHpiIohJRnvnlncsNc5-1" value="&lt;span style=&quot;color: rgb(0, 0, 0); font-family: Helvetica; font-size: 16px; font-style: normal; font-variant-ligatures: normal; font-variant-caps: normal; font-weight: 700; letter-spacing: normal; orphans: 2; text-align: left; text-indent: 0px; text-transform: none; widows: 2; word-spacing: 0px; -webkit-text-stroke-width: 0px; white-space: normal; background-color: rgb(251, 251, 251); text-decoration-thickness: initial; text-decoration-style: initial; text-decoration-color: initial; float: none; display: inline !important;&quot;&gt;wolverine&#39;s md5 hash = [54, 129, 223, 141, 4, 71, 14, 204, 101, 5, 59, 121, 14, 25, 160, 101]&lt;/span&gt;" style="text;whiteSpace=wrap;html=1;fontSize=16;" vertex="1" parent="1">
          <mxGeometry x="40" y="300" width="730" height="30" as="geometry" />
        </mxCell>
        <mxCell id="XuHpiIohJRnvnlncsNc5-2" value="&lt;span style=&quot;color: rgb(0, 0, 0); font-family: Helvetica; font-size: 16px; font-style: normal; font-variant-ligatures: normal; font-variant-caps: normal; font-weight: 700; letter-spacing: normal; orphans: 2; text-align: left; text-indent: 0px; text-transform: none; widows: 2; word-spacing: 0px; -webkit-text-stroke-width: 0px; white-space: normal; background-color: rgb(251, 251, 251); text-decoration-thickness: initial; text-decoration-style: initial; text-decoration-color: initial; float: none; display: inline !important;&quot;&gt;superman&#39;s md5 hash = [132, 217, 97, 86, 138, 101, 7, 58, 59, 207, 14, 178, 22, 178, 165, 118]&lt;/span&gt;" style="text;whiteSpace=wrap;html=1;fontSize=16;" vertex="1" parent="1">
          <mxGeometry x="40" y="330" width="730" height="30" as="geometry" />
        </mxCell>
      </root>
    </mxGraphModel>
  </diagram>
  <diagram id="yQWk65K90OVkBvzGiIgW" name="Page-2">
    <mxGraphModel dx="843" dy="490" grid="1" gridSize="10" guides="1" tooltips="1" connect="1" arrows="1" fold="1" page="1" pageScale="1" pageWidth="827" pageHeight="1169" math="0" shadow="0">
      <root>
        <mxCell id="0" />
        <mxCell id="1" parent="0" />
        <mxCell id="KDoO_8nMcTC4FZOE7ZPI-1" style="edgeStyle=orthogonalEdgeStyle;rounded=0;orthogonalLoop=1;jettySize=auto;html=1;" edge="1" parent="1" source="KDoO_8nMcTC4FZOE7ZPI-2" target="KDoO_8nMcTC4FZOE7ZPI-4">
          <mxGeometry relative="1" as="geometry" />
        </mxCell>
        <mxCell id="KDoO_8nMcTC4FZOE7ZPI-2" value="User ID&lt;br&gt;(String)" style="rounded=0;whiteSpace=wrap;html=1;fontStyle=1;fillColor=#cce5ff;strokeColor=#36393d;" vertex="1" parent="1">
          <mxGeometry x="160" y="180" width="80" height="40" as="geometry" />
        </mxCell>
        <mxCell id="KDoO_8nMcTC4FZOE7ZPI-3" style="edgeStyle=orthogonalEdgeStyle;rounded=0;orthogonalLoop=1;jettySize=auto;html=1;" edge="1" parent="1" source="KDoO_8nMcTC4FZOE7ZPI-4" target="KDoO_8nMcTC4FZOE7ZPI-5">
          <mxGeometry relative="1" as="geometry" />
        </mxCell>
        <mxCell id="KDoO_8nMcTC4FZOE7ZPI-4" value="Avatar&lt;br&gt;Generator" style="rounded=0;whiteSpace=wrap;html=1;hachureGap=4;fontFamily=Helvetica;fontStyle=1" vertex="1" parent="1">
          <mxGeometry x="280" y="180" width="120" height="40" as="geometry" />
        </mxCell>
        <mxCell id="KDoO_8nMcTC4FZOE7ZPI-5" value="Avatar&lt;br&gt;(Image)" style="rounded=0;whiteSpace=wrap;html=1;fontStyle=1;fillColor=#cce5ff;strokeColor=#36393d;" vertex="1" parent="1">
          <mxGeometry x="440" y="180" width="80" height="40" as="geometry" />
        </mxCell>
        <mxCell id="a40oMpt_ti4CeV3UtFyC-1" style="edgeStyle=orthogonalEdgeStyle;rounded=0;orthogonalLoop=1;jettySize=auto;html=1;" edge="1" parent="1" source="a40oMpt_ti4CeV3UtFyC-2" target="a40oMpt_ti4CeV3UtFyC-9">
          <mxGeometry relative="1" as="geometry">
            <Array as="points">
              <mxPoint x="540" y="340" />
              <mxPoint x="190" y="340" />
            </Array>
          </mxGeometry>
        </mxCell>
        <mxCell id="a40oMpt_ti4CeV3UtFyC-2" value="Remove&lt;br&gt;Odd Cells" style="rounded=1;whiteSpace=wrap;html=1;hachureGap=4;fontFamily=Helvetica;fontStyle=1" vertex="1" parent="1">
          <mxGeometry x="500" y="280" width="80" height="40" as="geometry" />
        </mxCell>
        <mxCell id="a40oMpt_ti4CeV3UtFyC-3" style="edgeStyle=orthogonalEdgeStyle;rounded=0;orthogonalLoop=1;jettySize=auto;html=1;" edge="1" parent="1" source="a40oMpt_ti4CeV3UtFyC-4" target="a40oMpt_ti4CeV3UtFyC-7">
          <mxGeometry relative="1" as="geometry" />
        </mxCell>
        <mxCell id="a40oMpt_ti4CeV3UtFyC-4" value="User ID&lt;br&gt;(String)" style="rounded=0;whiteSpace=wrap;html=1;fontStyle=1;fillColor=#cce5ff;strokeColor=#36393d;" vertex="1" parent="1">
          <mxGeometry x="100" y="280" width="80" height="40" as="geometry" />
        </mxCell>
        <mxCell id="a40oMpt_ti4CeV3UtFyC-5" value="Store&lt;br&gt;Image" style="rounded=1;whiteSpace=wrap;html=1;hachureGap=4;fontFamily=Helvetica;fontStyle=1" vertex="1" parent="1">
          <mxGeometry x="350" y="360" width="80" height="40" as="geometry" />
        </mxCell>
        <mxCell id="a40oMpt_ti4CeV3UtFyC-6" style="edgeStyle=orthogonalEdgeStyle;rounded=0;orthogonalLoop=1;jettySize=auto;html=1;" edge="1" parent="1" source="a40oMpt_ti4CeV3UtFyC-7" target="a40oMpt_ti4CeV3UtFyC-11">
          <mxGeometry relative="1" as="geometry" />
        </mxCell>
        <mxCell id="a40oMpt_ti4CeV3UtFyC-7" value="Compute Hash" style="rounded=1;whiteSpace=wrap;html=1;hachureGap=4;fontFamily=Helvetica;fontStyle=1" vertex="1" parent="1">
          <mxGeometry x="200" y="280" width="80" height="40" as="geometry" />
        </mxCell>
        <mxCell id="a40oMpt_ti4CeV3UtFyC-8" style="edgeStyle=orthogonalEdgeStyle;rounded=0;orthogonalLoop=1;jettySize=auto;html=1;" edge="1" parent="1" source="a40oMpt_ti4CeV3UtFyC-9" target="a40oMpt_ti4CeV3UtFyC-16">
          <mxGeometry relative="1" as="geometry" />
        </mxCell>
        <mxCell id="a40oMpt_ti4CeV3UtFyC-9" value="Generate&lt;br&gt;Pixel Map" style="rounded=1;whiteSpace=wrap;html=1;hachureGap=4;fontFamily=Helvetica;fontStyle=1" vertex="1" parent="1">
          <mxGeometry x="150" y="360" width="80" height="40" as="geometry" />
        </mxCell>
        <mxCell id="a40oMpt_ti4CeV3UtFyC-10" style="edgeStyle=orthogonalEdgeStyle;rounded=0;orthogonalLoop=1;jettySize=auto;html=1;" edge="1" parent="1" source="a40oMpt_ti4CeV3UtFyC-11" target="a40oMpt_ti4CeV3UtFyC-13">
          <mxGeometry relative="1" as="geometry" />
        </mxCell>
        <mxCell id="a40oMpt_ti4CeV3UtFyC-11" value="Select&lt;br&gt;Colour" style="rounded=1;whiteSpace=wrap;html=1;hachureGap=4;fontFamily=Helvetica;fontStyle=1" vertex="1" parent="1">
          <mxGeometry x="300" y="280" width="80" height="40" as="geometry" />
        </mxCell>
        <mxCell id="a40oMpt_ti4CeV3UtFyC-12" style="edgeStyle=orthogonalEdgeStyle;rounded=0;orthogonalLoop=1;jettySize=auto;html=1;" edge="1" parent="1" source="a40oMpt_ti4CeV3UtFyC-13" target="a40oMpt_ti4CeV3UtFyC-2">
          <mxGeometry relative="1" as="geometry" />
        </mxCell>
        <mxCell id="a40oMpt_ti4CeV3UtFyC-13" value="Create&lt;br&gt;Grid" style="rounded=1;whiteSpace=wrap;html=1;hachureGap=4;fontFamily=Helvetica;fontStyle=1" vertex="1" parent="1">
          <mxGeometry x="400" y="280" width="80" height="40" as="geometry" />
        </mxCell>
        <mxCell id="a40oMpt_ti4CeV3UtFyC-14" style="edgeStyle=orthogonalEdgeStyle;rounded=0;orthogonalLoop=1;jettySize=auto;html=1;" edge="1" parent="1" source="a40oMpt_ti4CeV3UtFyC-16" target="a40oMpt_ti4CeV3UtFyC-5">
          <mxGeometry relative="1" as="geometry" />
        </mxCell>
        <mxCell id="a40oMpt_ti4CeV3UtFyC-15" value="" style="edgeStyle=orthogonalEdgeStyle;rounded=0;orthogonalLoop=1;jettySize=auto;html=1;" edge="1" parent="1" source="a40oMpt_ti4CeV3UtFyC-5" target="a40oMpt_ti4CeV3UtFyC-17">
          <mxGeometry relative="1" as="geometry">
            <Array as="points">
              <mxPoint x="430" y="380" />
              <mxPoint x="430" y="380" />
            </Array>
          </mxGeometry>
        </mxCell>
        <mxCell id="a40oMpt_ti4CeV3UtFyC-16" value="Render&lt;br&gt;Image" style="rounded=1;whiteSpace=wrap;html=1;hachureGap=4;fontFamily=Helvetica;fontStyle=1" vertex="1" parent="1">
          <mxGeometry x="250" y="360" width="80" height="40" as="geometry" />
        </mxCell>
        <mxCell id="a40oMpt_ti4CeV3UtFyC-17" value="Avatar&lt;br&gt;(Image)" style="rounded=0;whiteSpace=wrap;html=1;fontStyle=1;fillColor=#cce5ff;strokeColor=#36393d;" vertex="1" parent="1">
          <mxGeometry x="450" y="360" width="80" height="40" as="geometry" />
        </mxCell>
        <mxCell id="a40oMpt_ti4CeV3UtFyC-18" value="" style="shape=flexArrow;endArrow=classic;html=1;rounded=0;width=84.82758620689656;endSize=4.289655172413793;endWidth=46.32580261593341;fillColor=#eeeeee;strokeColor=#36393d;" edge="1" parent="1">
          <mxGeometry width="50" height="50" relative="1" as="geometry">
            <mxPoint x="339.66" y="240" as="sourcePoint" />
            <mxPoint x="339.66" y="270" as="targetPoint" />
          </mxGeometry>
        </mxCell>
      </root>
    </mxGraphModel>
  </diagram>
  <diagram id="VQEMZbe60j5XHGm0CP5Q" name="Page-4">
    <mxGraphModel dx="582" dy="338" grid="1" gridSize="10" guides="1" tooltips="1" connect="1" arrows="1" fold="1" page="1" pageScale="1" pageWidth="827" pageHeight="1169" math="0" shadow="0">
      <root>
        <mxCell id="0" />
        <mxCell id="1" parent="0" />
        <mxCell id="HRmVxIXZC-h596LT8TOu-1" value="[54, 129, 223, 141, 4, 71, 14, 204, 101, 5, 59, 121, 14, 25, 160, 101]" style="text;whiteSpace=wrap;fontStyle=1" parent="1" vertex="1">
          <mxGeometry x="160" y="200" width="370" height="30" as="geometry" />
        </mxCell>
        <mxCell id="HRmVxIXZC-h596LT8TOu-2" value="" style="endArrow=baseDash;startArrow=baseDash;html=1;rounded=0;exitX=0;exitY=1;exitDx=0;exitDy=0;entryX=0.207;entryY=0.999;entryDx=0;entryDy=0;entryPerimeter=0;startFill=0;endFill=0;" parent="1" edge="1">
          <mxGeometry width="50" height="50" relative="1" as="geometry">
            <mxPoint x="161.34000000000023" y="199.45999999999998" as="sourcePoint" />
            <mxPoint x="239.99999999999997" y="199.43" as="targetPoint" />
          </mxGeometry>
        </mxCell>
        <mxCell id="HRmVxIXZC-h596LT8TOu-3" value="The first 3 values&lt;br&gt;&lt;div&gt;are the RGB colour&lt;/div&gt;" style="text;html=1;align=left;verticalAlign=middle;whiteSpace=wrap;rounded=0;" parent="1" vertex="1">
          <mxGeometry x="160" y="160" width="110" height="30" as="geometry" />
        </mxCell>
        <mxCell id="bEoK1kdpFR0-EloBwYoM-26" value="0&lt;div&gt;&lt;b&gt;54&lt;/b&gt;&lt;/div&gt;" style="rounded=0;whiteSpace=wrap;html=1;verticalAlign=top;align=center;fillColor=#3681DF;" parent="1" vertex="1">
          <mxGeometry x="280" width="40" height="40" as="geometry" />
        </mxCell>
        <mxCell id="bEoK1kdpFR0-EloBwYoM-27" value="5&lt;br&gt;&lt;b&gt;141&lt;/b&gt;" style="rounded=0;whiteSpace=wrap;html=1;fillStyle=auto;verticalAlign=top;align=center;" parent="1" vertex="1">
          <mxGeometry x="280" y="40" width="40" height="40" as="geometry" />
        </mxCell>
        <mxCell id="bEoK1kdpFR0-EloBwYoM-28" value="10&lt;br&gt;&lt;b&gt;14&lt;/b&gt;" style="rounded=0;whiteSpace=wrap;html=1;verticalAlign=top;align=center;fillColor=#3681DF;" parent="1" vertex="1">
          <mxGeometry x="280" y="80" width="40" height="40" as="geometry" />
        </mxCell>
        <mxCell id="bEoK1kdpFR0-EloBwYoM-29" value="15&lt;br&gt;&lt;b&gt;5&lt;/b&gt;" style="rounded=0;whiteSpace=wrap;html=1;verticalAlign=top;align=center;" parent="1" vertex="1">
          <mxGeometry x="280" y="120" width="40" height="40" as="geometry" />
        </mxCell>
        <mxCell id="bEoK1kdpFR0-EloBwYoM-30" value="20&lt;br&gt;&lt;b&gt;14&lt;/b&gt;" style="rounded=0;whiteSpace=wrap;html=1;verticalAlign=top;align=center;fillColor=#3681DF;" parent="1" vertex="1">
          <mxGeometry x="280" y="160" width="40" height="40" as="geometry" />
        </mxCell>
        <mxCell id="bEoK1kdpFR0-EloBwYoM-31" value="&lt;div&gt;1&lt;br&gt;&lt;b&gt;129&lt;/b&gt;&lt;/div&gt;" style="rounded=0;whiteSpace=wrap;html=1;verticalAlign=top;align=center;" parent="1" vertex="1">
          <mxGeometry x="320" width="40" height="40" as="geometry" />
        </mxCell>
        <mxCell id="bEoK1kdpFR0-EloBwYoM-32" value="6&lt;br&gt;&lt;b&gt;4&lt;/b&gt;" style="rounded=0;whiteSpace=wrap;html=1;fillStyle=auto;verticalAlign=top;align=center;fillColor=#3681DF;" parent="1" vertex="1">
          <mxGeometry x="320" y="40" width="40" height="40" as="geometry" />
        </mxCell>
        <mxCell id="bEoK1kdpFR0-EloBwYoM-33" value="11&lt;br&gt;&lt;b&gt;204&lt;/b&gt;" style="rounded=0;whiteSpace=wrap;html=1;verticalAlign=top;align=center;fillColor=#3681DF;" parent="1" vertex="1">
          <mxGeometry x="320" y="80" width="40" height="40" as="geometry" />
        </mxCell>
        <mxCell id="bEoK1kdpFR0-EloBwYoM-34" value="16&lt;br&gt;&lt;b&gt;59&lt;/b&gt;" style="rounded=0;whiteSpace=wrap;html=1;verticalAlign=top;align=center;" parent="1" vertex="1">
          <mxGeometry x="320" y="120" width="40" height="40" as="geometry" />
        </mxCell>
        <mxCell id="bEoK1kdpFR0-EloBwYoM-35" value="21&lt;div&gt;&lt;b&gt;25&lt;/b&gt;&lt;/div&gt;" style="rounded=0;whiteSpace=wrap;html=1;verticalAlign=top;align=center;" parent="1" vertex="1">
          <mxGeometry x="320" y="160" width="40" height="40" as="geometry" />
        </mxCell>
        <mxCell id="bEoK1kdpFR0-EloBwYoM-36" value="&lt;div&gt;2&lt;/div&gt;&lt;div&gt;&lt;b&gt;223&lt;/b&gt;&lt;/div&gt;" style="rounded=0;whiteSpace=wrap;html=1;verticalAlign=top;align=center;" parent="1" vertex="1">
          <mxGeometry x="360" width="40" height="40" as="geometry" />
        </mxCell>
        <mxCell id="bEoK1kdpFR0-EloBwYoM-37" value="7&lt;br&gt;&lt;b&gt;71&lt;/b&gt;" style="rounded=0;whiteSpace=wrap;html=1;fillStyle=auto;verticalAlign=top;align=center;" parent="1" vertex="1">
          <mxGeometry x="360" y="40" width="40" height="40" as="geometry" />
        </mxCell>
        <mxCell id="bEoK1kdpFR0-EloBwYoM-38" value="12&lt;br&gt;&lt;b&gt;101&lt;/b&gt;" style="rounded=0;whiteSpace=wrap;html=1;verticalAlign=top;align=center;" parent="1" vertex="1">
          <mxGeometry x="360" y="80" width="40" height="40" as="geometry" />
        </mxCell>
        <mxCell id="bEoK1kdpFR0-EloBwYoM-39" value="17&lt;br&gt;&lt;b&gt;121&lt;/b&gt;" style="rounded=0;whiteSpace=wrap;html=1;verticalAlign=top;align=center;" parent="1" vertex="1">
          <mxGeometry x="360" y="120" width="40" height="40" as="geometry" />
        </mxCell>
        <mxCell id="bEoK1kdpFR0-EloBwYoM-40" value="22&lt;div&gt;&lt;b&gt;160&lt;/b&gt;&lt;/div&gt;" style="rounded=0;whiteSpace=wrap;html=1;fillStyle=auto;verticalAlign=top;align=center;fillColor=#3681DF;" parent="1" vertex="1">
          <mxGeometry x="360" y="160" width="40" height="40" as="geometry" />
        </mxCell>
        <mxCell id="bEoK1kdpFR0-EloBwYoM-51" value="&lt;div&gt;3&lt;br&gt;&lt;b&gt;129&lt;/b&gt;&lt;/div&gt;" style="rounded=0;whiteSpace=wrap;html=1;verticalAlign=top;align=center;" parent="1" vertex="1">
          <mxGeometry x="400" width="40" height="40" as="geometry" />
        </mxCell>
        <mxCell id="bEoK1kdpFR0-EloBwYoM-52" value="8&lt;br&gt;&lt;b&gt;4&lt;/b&gt;" style="rounded=0;whiteSpace=wrap;html=1;fillStyle=auto;verticalAlign=top;align=center;fillColor=#3681DF;" parent="1" vertex="1">
          <mxGeometry x="400" y="40" width="40" height="40" as="geometry" />
        </mxCell>
        <mxCell id="bEoK1kdpFR0-EloBwYoM-53" value="13&lt;br&gt;&lt;b&gt;204&lt;/b&gt;" style="rounded=0;whiteSpace=wrap;html=1;verticalAlign=top;align=center;fillColor=#3681DF;" parent="1" vertex="1">
          <mxGeometry x="400" y="80" width="40" height="40" as="geometry" />
        </mxCell>
        <mxCell id="bEoK1kdpFR0-EloBwYoM-54" value="18&lt;br&gt;&lt;b&gt;59&lt;/b&gt;" style="rounded=0;whiteSpace=wrap;html=1;verticalAlign=top;align=center;" parent="1" vertex="1">
          <mxGeometry x="400" y="120" width="40" height="40" as="geometry" />
        </mxCell>
        <mxCell id="bEoK1kdpFR0-EloBwYoM-55" value="&lt;div&gt;23&lt;br&gt;&lt;b&gt;25&lt;/b&gt;&lt;/div&gt;" style="rounded=0;whiteSpace=wrap;html=1;verticalAlign=top;align=center;" parent="1" vertex="1">
          <mxGeometry x="400" y="160" width="40" height="40" as="geometry" />
        </mxCell>
        <mxCell id="bEoK1kdpFR0-EloBwYoM-56" value="&lt;div&gt;4&lt;/div&gt;&lt;div&gt;&lt;b&gt;54&lt;/b&gt;&lt;/div&gt;" style="rounded=0;whiteSpace=wrap;html=1;verticalAlign=top;align=center;fillColor=#3681DF;" parent="1" vertex="1">
          <mxGeometry x="440" width="40" height="40" as="geometry" />
        </mxCell>
        <mxCell id="bEoK1kdpFR0-EloBwYoM-57" value="9&lt;br&gt;&lt;b&gt;141&lt;/b&gt;" style="rounded=0;whiteSpace=wrap;html=1;fillStyle=auto;verticalAlign=top;align=center;" parent="1" vertex="1">
          <mxGeometry x="440" y="40" width="40" height="40" as="geometry" />
        </mxCell>
        <mxCell id="bEoK1kdpFR0-EloBwYoM-58" value="14&lt;br&gt;&lt;b&gt;14&lt;/b&gt;" style="rounded=0;whiteSpace=wrap;html=1;verticalAlign=top;align=center;fillColor=#3681DF;" parent="1" vertex="1">
          <mxGeometry x="440" y="80" width="40" height="40" as="geometry" />
        </mxCell>
        <mxCell id="bEoK1kdpFR0-EloBwYoM-59" value="19&lt;br&gt;&lt;b&gt;5&lt;/b&gt;" style="rounded=0;whiteSpace=wrap;html=1;verticalAlign=top;align=center;" parent="1" vertex="1">
          <mxGeometry x="440" y="120" width="40" height="40" as="geometry" />
        </mxCell>
        <mxCell id="bEoK1kdpFR0-EloBwYoM-60" value="24&lt;br&gt;&lt;b&gt;14&lt;/b&gt;" style="rounded=0;whiteSpace=wrap;html=1;verticalAlign=top;align=center;fillColor=#3681DF;" parent="1" vertex="1">
          <mxGeometry x="440" y="160" width="40" height="40" as="geometry" />
        </mxCell>
        <mxCell id="0kBmqfW__A5tyyYZr93f-1" value="" style="endArrow=baseDash;startArrow=baseDash;html=1;rounded=0;startFill=0;endFill=0;" parent="1" edge="1">
          <mxGeometry width="50" height="50" relative="1" as="geometry">
            <mxPoint x="500" y="360" as="sourcePoint" />
            <mxPoint x="500" y="400" as="targetPoint" />
          </mxGeometry>
        </mxCell>
        <mxCell id="0kBmqfW__A5tyyYZr93f-2" value="50px" style="text;html=1;align=left;verticalAlign=middle;whiteSpace=wrap;rounded=0;" parent="1" vertex="1">
          <mxGeometry x="500" y="365" width="30" height="30" as="geometry" />
        </mxCell>
        <mxCell id="0kBmqfW__A5tyyYZr93f-5" value="&lt;div&gt;&lt;b&gt;0&lt;/b&gt;&lt;/div&gt;&lt;div&gt;&lt;b&gt;54&lt;/b&gt;&lt;/div&gt;" style="rounded=0;whiteSpace=wrap;html=1;verticalAlign=top;align=center;fillColor=#3681DF;" parent="1" vertex="1">
          <mxGeometry x="280" y="360" width="40" height="40" as="geometry" />
        </mxCell>
        <mxCell id="0kBmqfW__A5tyyYZr93f-6" value="5&lt;br&gt;&lt;b&gt;141&lt;/b&gt;" style="rounded=0;whiteSpace=wrap;html=1;fillStyle=auto;verticalAlign=top;align=center;" parent="1" vertex="1">
          <mxGeometry x="280" y="400" width="40" height="40" as="geometry" />
        </mxCell>
        <mxCell id="0kBmqfW__A5tyyYZr93f-7" value="&lt;div&gt;1&lt;br&gt;&lt;b&gt;129&lt;/b&gt;&lt;/div&gt;" style="rounded=0;whiteSpace=wrap;html=1;verticalAlign=top;align=center;" parent="1" vertex="1">
          <mxGeometry x="320" y="360" width="40" height="40" as="geometry" />
        </mxCell>
        <mxCell id="0kBmqfW__A5tyyYZr93f-8" value="6&lt;br&gt;&lt;b&gt;4&lt;/b&gt;" style="rounded=0;whiteSpace=wrap;html=1;fillStyle=auto;verticalAlign=top;align=center;fillColor=#3681DF;" parent="1" vertex="1">
          <mxGeometry x="320" y="400" width="40" height="40" as="geometry" />
        </mxCell>
        <mxCell id="0kBmqfW__A5tyyYZr93f-9" value="&lt;div&gt;2&lt;br&gt;&lt;b&gt;223&lt;/b&gt;&lt;/div&gt;" style="rounded=0;whiteSpace=wrap;html=1;verticalAlign=top;align=center;" parent="1" vertex="1">
          <mxGeometry x="360" y="360" width="40" height="40" as="geometry" />
        </mxCell>
        <mxCell id="0kBmqfW__A5tyyYZr93f-10" value="7&lt;br&gt;&lt;b&gt;71&lt;/b&gt;" style="rounded=0;whiteSpace=wrap;html=1;fillStyle=auto;verticalAlign=top;align=center;" parent="1" vertex="1">
          <mxGeometry x="360" y="400" width="40" height="40" as="geometry" />
        </mxCell>
        <mxCell id="0kBmqfW__A5tyyYZr93f-11" value="&lt;div&gt;3&lt;br&gt;&lt;b&gt;129&lt;/b&gt;&lt;/div&gt;" style="rounded=0;whiteSpace=wrap;html=1;verticalAlign=top;align=center;" parent="1" vertex="1">
          <mxGeometry x="400" y="360" width="40" height="40" as="geometry" />
        </mxCell>
        <mxCell id="0kBmqfW__A5tyyYZr93f-12" value="8&lt;br&gt;&lt;b&gt;4&lt;/b&gt;" style="rounded=0;whiteSpace=wrap;html=1;fillStyle=auto;verticalAlign=top;align=center;fillColor=#3681DF;" parent="1" vertex="1">
          <mxGeometry x="400" y="400" width="40" height="40" as="geometry" />
        </mxCell>
        <mxCell id="0kBmqfW__A5tyyYZr93f-13" value="&lt;div&gt;4&lt;br&gt;&lt;b&gt;54&lt;/b&gt;&lt;/div&gt;" style="rounded=0;whiteSpace=wrap;html=1;verticalAlign=top;align=center;fillColor=#3681DF;" parent="1" vertex="1">
          <mxGeometry x="440" y="360" width="40" height="40" as="geometry" />
        </mxCell>
        <mxCell id="0kBmqfW__A5tyyYZr93f-14" value="9&lt;br&gt;&lt;b&gt;141&lt;/b&gt;" style="rounded=0;whiteSpace=wrap;html=1;fillStyle=auto;verticalAlign=top;align=center;" parent="1" vertex="1">
          <mxGeometry x="440" y="400" width="40" height="40" as="geometry" />
        </mxCell>
        <mxCell id="0kBmqfW__A5tyyYZr93f-15" value="" style="ellipse;whiteSpace=wrap;html=1;aspect=fixed;fillColor=#000000;" parent="1" vertex="1">
          <mxGeometry x="430" y="350" width="20" height="20" as="geometry" />
        </mxCell>
        <mxCell id="0kBmqfW__A5tyyYZr93f-16" value="" style="endArrow=baseDash;startArrow=baseDash;html=1;rounded=0;startFill=0;endFill=0;" parent="1" edge="1">
          <mxGeometry width="50" height="50" relative="1" as="geometry">
            <mxPoint x="440" y="340" as="sourcePoint" />
            <mxPoint x="480" y="340" as="targetPoint" />
          </mxGeometry>
        </mxCell>
        <mxCell id="0kBmqfW__A5tyyYZr93f-17" value="50px" style="text;html=1;align=left;verticalAlign=middle;whiteSpace=wrap;rounded=0;" parent="1" vertex="1">
          <mxGeometry x="445" y="320" width="30" height="20" as="geometry" />
        </mxCell>
        <mxCell id="0kBmqfW__A5tyyYZr93f-18" value="" style="ellipse;whiteSpace=wrap;html=1;aspect=fixed;fillColor=#000000;" parent="1" vertex="1">
          <mxGeometry x="470" y="390" width="20" height="20" as="geometry" />
        </mxCell>
        <mxCell id="0kBmqfW__A5tyyYZr93f-19" value="x = 200&lt;br&gt;y = 0" style="text;html=1;align=left;verticalAlign=middle;whiteSpace=wrap;rounded=0;" parent="1" vertex="1">
          <mxGeometry x="389" y="330" width="50" height="20" as="geometry" />
        </mxCell>
        <mxCell id="0kBmqfW__A5tyyYZr93f-20" value="x = 250&lt;div&gt;y = 50&lt;/div&gt;" style="text;html=1;align=left;verticalAlign=middle;whiteSpace=wrap;rounded=0;" parent="1" vertex="1">
          <mxGeometry x="480" y="410" width="50" height="20" as="geometry" />
        </mxCell>
        <mxCell id="0kBmqfW__A5tyyYZr93f-21" value="Rem" style="text;html=1;align=center;verticalAlign=middle;whiteSpace=wrap;rounded=0;" parent="1" vertex="1">
          <mxGeometry x="350" y="330" width="25" height="20" as="geometry" />
        </mxCell>
        <mxCell id="0kBmqfW__A5tyyYZr93f-22" value="Div" style="text;html=1;align=center;verticalAlign=middle;whiteSpace=wrap;rounded=0;" parent="1" vertex="1">
          <mxGeometry x="490" y="440" width="25" height="20" as="geometry" />
        </mxCell>
      </root>
    </mxGraphModel>
  </diagram>
</mxfile>
